<svg width="270" height="270" viewBox="0 0 270 270" fill="none" xmlns="http://www.w3.org/2000/svg">
<style>
  path { fill: #1e293b; }
  @media (prefers-color-scheme: dark) { path { fill: #cbd5e1; } }
</style>
<path d="M158.111 162.717C158.111 159.289 156.949 156.229 154.626 153.537C152.302 150.844 148.634 148.09 143.621 145.275C138.607 142.337 131.943 139.093 123.628 135.544C114.58 131.872 106.57 128.077 99.6005 124.16C92.6307 120.244 86.7002 115.898 81.809 111.125C77.0402 106.351 73.433 100.904 70.9874 94.7843C68.5419 88.6643 67.3191 81.6875 67.3191 73.8538C67.3191 65.4082 68.8476 57.6358 71.9045 50.5365C75.0838 43.3149 79.608 37.0113 85.4774 31.6257C91.3467 26.1176 98.5 21.8336 106.937 18.7736C115.497 15.5912 125.095 14 135.734 14C150.652 14 163.43 16.6316 174.068 21.8948C184.828 27.0356 193.082 34.2573 198.829 43.5597C204.576 52.8622 207.45 63.6946 207.45 76.057H156.093C156.093 71.6506 155.42 67.7338 154.075 64.3066C152.73 60.757 150.529 58.003 147.472 56.0446C144.538 54.0862 140.564 53.1069 135.55 53.1069C131.882 53.1069 128.58 53.9026 125.646 55.4938C122.833 57.085 120.571 59.227 118.859 61.9198C117.27 64.4902 116.475 67.5502 116.475 71.0998C116.475 73.7926 117.025 76.1794 118.126 78.2602C119.348 80.3411 121.244 82.3607 123.812 84.3191C126.379 86.2775 129.803 88.3583 134.083 90.5615C138.485 92.6423 143.865 94.9679 150.224 97.5383C163.43 102.434 174.251 107.698 182.688 113.328C191.248 118.958 197.606 125.568 201.764 133.157C205.921 140.623 208 149.865 208 160.881C208 169.693 206.288 177.711 202.864 184.932C199.563 192.154 194.733 198.396 188.374 203.66C182.016 208.923 174.374 212.962 165.447 215.777C156.643 218.592 146.8 220 135.917 220C119.899 220 106.387 216.818 95.3819 210.453C84.3769 204.088 76.062 195.948 70.4372 186.034C64.8124 175.997 62 165.593 62 154.822H110.789C111.034 161.431 112.256 166.633 114.457 170.428C116.781 174.1 119.899 176.67 123.812 178.139C127.724 179.608 132.065 180.342 136.834 180.342C141.603 180.342 145.516 179.73 148.573 178.506C151.752 177.16 154.137 175.14 155.726 172.447C157.316 169.632 158.111 166.389 158.111 162.717Z" fill="#1E293B"/>
<rect y="238" width="270" height="32" fill="url(#paint0_linear_1_16)"/>
<defs>
<linearGradient id="paint0_linear_1_16" x1="0" y1="254" x2="270" y2="254" gradientUnits="userSpaceOnUse">
<stop stop-color="#F97316"/>
<stop offset="1" stop-color="#FEE148"/>
</linearGradient>
</defs>
</svg>
