<svg width="1913" height="655" viewBox="0 0 1913 655" fill="none" xmlns="http://www.w3.org/2000/svg">
<g clip-path="url(#clip0_131_8)">
<path d="M248.856 347.219C248.856 339.217 246.138 332.072 240.703 325.785C235.267 319.498 226.685 313.068 214.956 306.495C203.227 299.637 187.636 292.064 168.182 283.776C147.013 275.203 128.275 266.344 111.968 257.199C95.6621 248.054 81.7874 237.909 70.3444 226.764C59.1874 215.618 50.7481 202.901 45.0266 188.613C39.3051 174.324 36.4443 158.034 36.4443 139.745C36.4443 120.026 40.0203 101.879 47.1722 85.3043C54.6102 68.4435 65.195 53.726 78.9266 41.1518C92.6583 28.2919 109.394 18.2897 129.133 11.1453C149.158 3.7151 171.615 0 196.504 0C231.405 0 261.3 6.1442 286.189 18.4326C311.364 30.4352 330.674 47.296 344.119 69.0151C357.565 90.7341 364.288 116.025 364.288 144.889H244.136C244.136 134.601 242.562 125.456 239.415 117.454C236.269 109.167 231.119 102.737 223.967 98.1643C217.101 93.5918 207.804 91.3056 196.075 91.3056C187.493 91.3056 179.769 93.1632 172.903 96.8783C166.323 100.593 161.031 105.594 157.025 111.882C153.306 117.883 151.447 125.027 151.447 133.315C151.447 139.602 152.734 145.175 155.309 150.033C158.17 154.891 162.604 159.606 168.612 164.179C174.619 168.751 182.629 173.609 192.642 178.753C202.941 183.611 215.528 189.041 230.404 195.043C261.3 206.474 286.618 218.762 306.357 231.908C326.383 245.053 341.259 260.485 350.985 278.204C360.712 295.636 365.575 317.212 365.575 342.932C365.575 363.508 361.57 382.226 353.56 399.087C345.836 415.948 334.536 430.522 319.66 442.811C304.784 455.099 286.904 464.53 266.021 471.103C245.423 477.676 222.394 480.962 196.933 480.962C159.457 480.962 127.846 473.532 102.099 458.671C76.352 443.811 56.8988 424.807 43.7393 401.659C30.5798 378.225 24 353.934 24 328.786H138.144C138.717 344.218 141.577 356.363 146.727 365.223C152.162 373.796 159.457 379.797 168.612 383.226C177.766 386.656 187.922 388.37 199.079 388.37C210.236 388.37 219.39 386.942 226.542 384.084C233.98 380.94 239.558 376.225 243.277 369.938C246.996 363.365 248.856 355.792 248.856 347.219Z" fill="#F1F5F9"/>
<path d="M657.596 360.936V8.5733H778.177V472.389H664.891L657.596 360.936ZM671.328 265.344L704.799 264.486C704.799 295.636 701.795 324.499 695.787 351.077C689.78 377.368 680.768 400.23 668.753 419.663C656.738 439.096 641.719 454.242 623.696 465.101C605.673 475.675 584.361 480.962 559.758 480.962C540.877 480.962 523.426 477.818 507.406 471.531C491.672 464.959 478.083 454.813 466.64 441.096C455.197 427.093 446.186 409.232 439.606 387.513C433.312 365.508 430.165 339.074 430.165 308.21V8.5733H550.747V309.496C550.747 322.07 551.891 332.93 554.179 342.075C556.468 350.934 559.615 358.221 563.62 363.937C567.625 369.652 572.345 373.796 577.781 376.368C583.216 378.654 589.367 379.797 596.233 379.797C615.114 379.797 629.99 374.939 640.861 365.223C652.018 355.22 659.885 341.646 664.462 324.499C669.039 307.067 671.328 287.348 671.328 265.344Z" fill="#F1F5F9"/>
<path d="M985.869 111.882V472.389H865.717V8.5733H979.003L985.869 111.882ZM1095.29 5.14398L1093.58 124.741C1088.14 123.598 1081.56 122.741 1073.84 122.17C1066.4 121.598 1059.82 121.312 1054.1 121.312C1040.65 121.312 1029.21 123.455 1019.77 127.742C1010.33 131.743 1002.46 137.887 996.167 146.175C990.16 154.176 985.583 164.179 982.436 176.181C979.289 188.184 977.429 201.758 976.857 216.904L954.114 208.331C954.114 178.039 956.403 150.318 960.98 125.17C965.843 99.736 972.995 77.7312 982.436 59.1558C991.876 40.2945 1003.18 25.7199 1016.34 15.4319C1029.78 5.14398 1044.94 0 1061.82 0C1067.54 0 1073.55 0.571553 1079.84 1.71466C1086.42 2.57199 1091.57 3.7151 1095.29 5.14398Z" fill="#F1F5F9"/>
<path d="M1365.67 8.5733H1474.66V472.389C1474.66 514.684 1466.51 549.263 1450.2 576.126C1434.18 603.274 1411.73 623.136 1382.83 635.71C1354.23 648.57 1320.76 655 1282.42 655C1267.83 655 1251.38 653 1233.07 648.999C1215.05 644.998 1197.6 638.854 1180.72 630.566C1163.84 622.564 1149.97 612.848 1139.1 601.417L1179.86 518.256C1191.02 529.401 1205.61 538.832 1223.63 546.548C1241.66 554.55 1259.39 558.55 1276.84 558.55C1293.72 558.55 1307.74 555.836 1318.9 550.406C1330.34 545.262 1338.92 536.403 1344.64 523.829C1350.65 511.254 1353.65 494.394 1353.65 473.246V116.168L1365.67 8.5733ZM1106.48 256.77V225.906C1106.48 188.184 1110.06 155.177 1117.21 126.885C1124.36 98.5929 1134.66 75.0164 1148.11 56.1551C1161.55 37.2938 1178 23.2908 1197.46 14.1459C1217.2 4.71531 1239.22 0 1263.54 0C1289 0 1310.31 5.57264 1327.48 16.7179C1344.64 27.5774 1358.52 42.8665 1369.1 62.5851C1379.97 82.3037 1388.27 105.594 1393.99 132.457C1400 159.32 1404.58 188.755 1407.72 220.762V265.344C1404.58 295.636 1399.43 323.928 1392.27 350.219C1385.41 376.511 1376.25 399.373 1364.81 418.806C1353.37 438.238 1339.35 453.527 1322.76 464.673C1306.17 475.532 1286.14 480.962 1262.68 480.962C1238.65 480.962 1216.91 476.104 1197.46 466.387C1178.29 456.671 1161.84 442.382 1148.11 423.521C1134.66 404.374 1124.36 380.94 1117.21 353.22C1110.06 325.214 1106.48 293.064 1106.48 256.77ZM1227.07 225.906V256.77C1227.07 278.489 1228.35 297.208 1230.93 312.925C1233.79 328.357 1238.08 341.074 1243.8 351.077C1249.52 360.793 1256.82 368.08 1265.69 372.938C1274.84 377.511 1285.57 379.797 1297.87 379.797C1315.32 379.797 1329.19 375.796 1339.49 367.794C1350.08 359.507 1357.8 348.219 1362.67 333.93C1367.81 319.355 1370.68 302.637 1371.25 283.776V202.759C1370.96 187.041 1369.1 172.895 1365.67 160.321C1362.52 147.747 1358.09 137.03 1352.37 128.171C1346.65 119.312 1339.21 112.453 1330.05 107.595C1321.18 102.737 1310.74 100.308 1298.73 100.308C1286.43 100.308 1275.84 102.737 1266.97 107.595C1258.1 112.453 1250.67 120.026 1244.66 130.314C1238.94 140.316 1234.5 153.319 1231.36 169.323C1228.5 185.04 1227.07 203.902 1227.07 225.906Z" fill="#F1F5F9"/>
<path d="M1725.08 480.962C1693.32 480.962 1665.15 476.104 1640.54 466.387C1616.23 456.671 1595.63 442.668 1578.75 424.378C1561.87 405.803 1549 383.369 1540.13 357.078C1531.26 330.786 1526.83 300.78 1526.83 267.058V228.907C1526.83 191.185 1531.12 158.177 1539.7 129.885C1548.28 101.308 1560.44 77.3026 1576.18 57.8698C1591.91 38.437 1611.22 24.0052 1634.11 14.5746C1657.28 4.8582 1683.45 0 1712.63 0C1741.81 0 1767.42 4.8582 1789.45 14.5746C1811.76 24.0052 1830.21 38.2941 1844.8 57.4411C1859.39 76.3024 1870.41 99.736 1877.84 127.742C1885.28 155.748 1889 188.327 1889 225.478V280.347H1577.89V195.9H1770.99V185.183C1770.99 166.322 1768.99 150.604 1764.99 138.03C1760.98 125.17 1754.69 115.597 1746.1 109.31C1737.52 103.022 1726.08 99.8789 1711.78 99.8789C1699.76 99.8789 1689.6 102.308 1681.31 107.166C1673.01 112.024 1666.43 119.598 1661.57 129.885C1656.71 140.173 1653.13 153.605 1650.84 170.18C1648.55 186.469 1647.41 206.045 1647.41 228.907V267.058C1647.41 288.491 1649.27 306.495 1652.99 321.07C1656.71 335.359 1662.14 347.076 1669.29 356.221C1676.73 365.08 1685.74 371.51 1696.33 375.51C1706.91 379.226 1719.21 381.083 1733.23 381.083C1754.4 381.083 1773.43 377.368 1790.3 369.938C1807.47 362.222 1822.06 351.791 1834.07 338.645L1882.13 411.518C1873.84 422.378 1862.39 433.237 1847.81 444.097C1833.22 454.956 1815.76 463.815 1795.45 470.674C1775.14 477.533 1751.68 480.962 1725.08 480.962Z" fill="#F1F5F9"/>
<path d="M0 558H1130L1108.19 603H0V558Z" fill="url(#paint0_linear_131_8)"/>
<path d="M1489.81 558H1913V603H1463C1463 603 1468.78 596.697 1473.29 588.682C1479.05 578.455 1489.81 558 1489.81 558Z" fill="url(#paint1_linear_131_8)"/>
</g>
<defs>
<linearGradient id="paint0_linear_131_8" x1="-3.40919e-05" y1="525.273" x2="1130.3" y2="598.306" gradientUnits="userSpaceOnUse">
<stop stop-color="#F97316"/>
<stop offset="1" stop-color="#FCBA36"/>
</linearGradient>
<linearGradient id="paint1_linear_131_8" x1="1463.69" y1="558" x2="1913.47" y2="597.695" gradientUnits="userSpaceOnUse">
<stop stop-color="#FDCC3F"/>
<stop offset="1" stop-color="#FEE148"/>
</linearGradient>
<clipPath id="clip0_131_8">
<rect width="1913" height="655" fill="white"/>
</clipPath>
</defs>
</svg>
